<svg width="172" height="87" viewBox="0 0 172 87" fill="none" xmlns="http://www.w3.org/2000/svg">
<path d="M143.957 7.10938L117.114 1.34842C113.039 0.479264 108.827 0.467669 104.748 1.31437C100.668 2.16107 96.8094 3.84754 93.4169 6.2665L72.0053 21.5586C69.2265 23.5403 66.8082 25.9839 64.8556 28.7832L46.4917 55.0059C48.0128 55.8843 49.4355 56.9231 50.7355 58.1044C51.6827 58.9767 54.8214 60.625 59.9375 60.625C65.0536 60.625 68.195 58.9767 69.1395 58.1044C73.4208 54.1523 78.371 52.0625 83.4442 52.0625H87.8058C92.8897 52.0625 97.8266 54.1523 102.11 58.1044C103.058 58.9767 106.196 60.625 111.312 60.625C116.429 60.625 119.57 58.9767 120.515 58.1044C124.491 54.4359 129.045 52.4532 133.73 52.1749L103.537 30.6081L108.353 27.167C108.838 26.8261 109.388 26.5882 109.969 26.4681C110.55 26.348 111.149 26.3482 111.73 26.4687L138.581 32.2296C141.913 32.9425 145.39 32.3028 148.25 30.4514C151.11 28.6 153.116 25.6885 153.829 22.3573C154.542 19.0262 153.903 15.5483 152.051 12.6887C150.2 9.82918 147.288 7.82223 143.957 7.10938ZM29.9688 0.6875C25.735 0.6875 21.5963 1.94295 18.0761 4.2951C14.5558 6.64725 11.8122 9.99045 10.192 13.9019C8.57177 17.8134 8.14786 22.1175 8.97382 26.2699C9.79979 30.4223 11.8385 34.2365 14.8323 37.2303C17.826 40.224 21.6402 42.2627 25.7926 43.0887C29.945 43.9146 34.2491 43.4907 38.1606 41.8705C42.0721 40.2504 45.4152 37.5067 47.7674 33.9864C50.1195 30.4662 51.375 26.3275 51.375 22.0938C51.375 19.2826 50.8213 16.4991 49.7456 13.9019C48.6698 11.3048 47.093 8.945 45.1053 6.95725C43.1175 4.96949 40.7577 3.39272 38.1606 2.31695C35.5634 1.24119 32.7799 0.6875 29.9688 0.6875Z" fill="#02527E"/>
<path d="M171.25 73.4688V82.0312C171.25 83.1667 170.799 84.2557 169.996 85.0586C169.193 85.8614 168.104 86.3125 166.969 86.3125H162.688C152.354 86.3125 143.229 83.0534 137 77.7928C130.771 83.0507 121.646 86.3125 111.312 86.3125C100.979 86.3125 91.8542 83.0534 85.625 77.7928C79.3958 83.0507 70.2714 86.3125 59.9375 86.3125C49.6036 86.3125 40.4792 83.0534 34.25 77.7928C28.0208 83.0507 18.8964 86.3125 8.5625 86.3125H4.28125C3.14579 86.3125 2.05684 85.8614 1.25395 85.0586C0.451059 84.2557 0 83.1667 0 82.0312V73.4688C0 72.3333 0.451059 71.2443 1.25395 70.4414C2.05684 69.6386 3.14579 69.1875 4.28125 69.1875H8.5625C15.5195 69.1875 20.8176 66.9345 23.5656 64.3979C25.9471 62.201 28.8262 60.625 32.0666 60.625H36.4281C39.6685 60.625 42.5476 62.201 44.929 64.3979C47.6824 66.9345 52.9805 69.1875 59.9375 69.1875C66.8945 69.1875 72.1926 66.9345 74.9406 64.3979C77.3221 62.201 80.2012 60.625 83.4416 60.625H87.8031C91.0435 60.625 93.9226 62.201 96.304 64.3979C99.0574 66.9345 104.355 69.1875 111.312 69.1875C118.27 69.1875 123.568 66.9345 126.316 64.3979C128.697 62.201 131.576 60.625 134.817 60.625H139.178C142.418 60.625 145.298 62.201 147.679 64.3979C150.432 66.9345 155.73 69.1875 162.688 69.1875H166.969C168.104 69.1875 169.193 69.6386 169.996 70.4414C170.799 71.2443 171.25 72.3333 171.25 73.4688Z" fill="#C9DDE9"/>
</svg>
