<svg width="17" height="18" viewBox="0 0 17 18" fill="none" xmlns="http://www.w3.org/2000/svg">
<path d="M9.84851 9L15.0566 3.79188L16.1307 2.71785C16.2891 2.55941 16.2891 2.30195 16.1307 2.14352L14.9815 0.994336C14.823 0.835899 14.5656 0.835899 14.4071 0.994336L8.125 7.27648L1.84285 0.993828C1.68441 0.835391 1.42695 0.835391 1.26852 0.993828L0.118828 2.14301C-0.0396094 2.30145 -0.0396094 2.55891 0.118828 2.71734L6.40148 9L0.118828 15.2821C-0.0396094 15.4406 -0.0396094 15.698 0.118828 15.8565L1.26801 17.0057C1.42645 17.1641 1.68391 17.1641 1.84234 17.0057L8.125 10.7235L13.3331 15.9316L14.4071 17.0057C14.5656 17.1641 14.823 17.1641 14.9815 17.0057L16.1307 15.8565C16.2891 15.698 16.2891 15.4406 16.1307 15.2821L9.84851 9Z" fill="white"/>
</svg>
