<svg width="80" height="70" viewBox="0 0 80 70" fill="none" xmlns="http://www.w3.org/2000/svg">
<path d="M5 4.0625V0.9375C5 0.421875 5.42188 0 5.9375 0H24.0625C24.5781 0 25 0.421875 25 0.9375V4.0625C25 4.57812 24.5781 5 24.0625 5H5.9375C5.42188 5 5 4.57812 5 4.0625ZM58.75 40C58.75 29.6562 50.3438 21.25 40 21.25C29.6562 21.25 21.25 29.6562 21.25 40C21.25 50.3438 29.6562 58.75 40 58.75C50.3438 58.75 58.75 50.3438 58.75 40ZM53.75 40C53.75 47.5781 47.5781 53.75 40 53.75C32.4219 53.75 26.25 47.5781 26.25 40C26.25 32.4219 32.4219 26.25 40 26.25C47.5781 26.25 53.75 32.4219 53.75 40ZM35 40C35 37.25 37.25 35 40 35C41.375 35 42.5 33.875 42.5 32.5C42.5 31.125 41.375 30 40 30C34.4844 30 30 34.4844 30 40C30 41.375 31.125 42.5 32.5 42.5C33.875 42.5 35 41.375 35 40ZM80 7.5V62.5C80 66.6406 76.6406 70 72.5 70H7.5C3.35938 70 0 66.6406 0 62.5V17.5C0 13.3594 3.35938 10 7.5 10H28.75L34 3C35.4219 1.10938 37.6406 0 40 0H72.5C76.6406 0 80 3.35938 80 7.5ZM35 10H72.5C73.375 10 74.2188 10.1562 75 10.4219V7.5C75 6.125 73.875 5 72.5 5H40C39.2188 5 38.4688 5.375 38 6L35 10ZM75 17.5C75 16.125 73.875 15 72.5 15H7.5C6.125 15 5 16.125 5 17.5V62.5C5 63.875 6.125 65 7.5 65H72.5C73.875 65 75 63.875 75 62.5V17.5Z" fill="#02527E"/>
</svg>
