<svg width="155" height="103" viewBox="0 0 155 103" fill="none" xmlns="http://www.w3.org/2000/svg">
<path d="M71.6412 34.375H82.4889C82.9389 34.3749 83.3839 34.2801 83.7949 34.0969C84.206 33.9138 84.5739 33.6462 84.8749 33.3117C85.1759 32.9771 85.4032 32.583 85.5421 32.155C85.681 31.7269 85.7283 31.2745 85.6811 30.8269L84.4502 19.1659C84.3945 18.6379 84.1446 18.1495 83.749 17.7955C83.3534 17.4415 82.8404 17.2471 82.3096 17.25H71.8071C71.2763 17.2471 70.7633 17.4415 70.3677 17.7955C69.9722 18.1495 69.7223 18.6379 69.6665 19.1659L68.4383 30.8269C68.391 31.2753 68.4386 31.7287 68.5781 32.1575C68.7176 32.5863 68.9459 32.9809 69.2481 33.3157C69.5502 33.6504 69.9195 33.9177 70.3318 34.1002C70.7442 34.2827 71.1903 34.3764 71.6412 34.375ZM73.1611 8.6875H80.9637C81.2647 8.68917 81.5628 8.6273 81.8383 8.50595C82.1138 8.38461 82.3607 8.2065 82.5627 7.98327C82.7647 7.76004 82.9174 7.4967 83.0107 7.21046C83.104 6.92422 83.1359 6.62152 83.1043 6.32211L82.438 0.125H71.6867L71.0312 6.32211C70.9997 6.62062 71.0313 6.92241 71.124 7.20791C71.2167 7.4934 71.3684 7.75621 71.5692 7.97927C71.7701 8.20234 72.0156 8.38066 72.2898 8.50267C72.5641 8.62469 72.8609 8.68766 73.1611 8.6875ZM90.5242 76.738C90.4132 75.6863 89.9168 74.7129 89.1308 74.0054C88.3447 73.2979 87.3246 72.9063 86.2671 72.9062H67.8577C66.8001 72.9063 65.78 73.2979 64.994 74.0054C64.2079 74.7129 63.7116 75.6863 63.6005 76.738L60.8418 102.875H93.283L90.5242 76.738ZM69.6531 64.3438H84.4475C85.0476 64.3437 85.641 64.2175 86.1892 63.9733C86.7374 63.7291 87.2281 63.3724 87.6295 62.9263C88.031 62.4802 88.3341 61.9547 88.5193 61.3839C88.7046 60.8131 88.7677 60.2098 88.7047 59.613L87.3481 46.7692C87.2372 45.7193 86.7424 44.7474 85.9586 44.0402C85.1748 43.333 84.1573 42.9402 83.1016 42.9375H71.0205C69.9629 42.9376 68.9428 43.3291 68.1568 44.0366C67.3707 44.7441 66.8743 45.7175 66.7633 46.7692L65.4067 59.613C65.3437 60.2098 65.4068 60.8131 65.592 61.3839C65.7773 61.9547 66.0804 62.4802 66.4819 62.9263C66.8833 63.3724 67.374 63.7291 67.9222 63.9733C68.4704 64.2175 69.0637 64.3437 69.6638 64.3438H69.6531Z" fill="#C9DDE9"/>
<path d="M153.373 90.7457L115.969 5.12068C114.639 2.07564 111.741 0.125 108.551 0.125H82.4384L83.094 6.32211C83.1256 6.62152 83.0937 6.92422 83.0004 7.21046C82.907 7.4967 82.7544 7.76004 82.5524 7.98327C82.3503 8.2065 82.1035 8.38461 81.828 8.50595C81.5524 8.6273 81.2544 8.68917 80.9533 8.6875H73.1615C72.8604 8.68917 72.5624 8.6273 72.2868 8.50595C72.0113 8.38461 71.7645 8.2065 71.5625 7.98327C71.3604 7.76004 71.2078 7.4967 71.1144 7.21046C71.0211 6.92422 70.9892 6.62152 71.0208 6.32211L71.6871 0.125H45.5742C43.9849 0.143264 42.4357 0.625932 41.1173 1.51357C39.799 2.4012 38.769 3.65505 38.1542 5.12068L0.749461 90.7457C-1.72564 96.4157 2.22382 102.875 8.17208 102.875H60.8422L63.6009 76.738C63.7119 75.6863 64.2083 74.7129 64.9944 74.0054C65.7804 73.2979 66.8005 72.9063 67.8581 72.9062H86.2674C87.325 72.9063 88.3451 73.2979 89.1311 74.0054C89.9172 74.7129 90.4136 75.6863 90.5246 76.738L93.2833 102.875H145.953C151.902 102.875 155.851 96.4157 153.373 90.7457ZM68.4494 30.8269L69.6776 19.1659C69.7333 18.6379 69.9832 18.1495 70.3788 17.7955C70.7744 17.4415 71.2874 17.2471 71.8182 17.25H82.3314C82.8622 17.2471 83.3752 17.4415 83.7708 17.7955C84.1664 18.1495 84.4163 18.6379 84.472 19.1659L85.7029 30.8269C85.7503 31.2762 85.7024 31.7305 85.5622 32.1601C85.4221 32.5896 85.1929 32.9848 84.8895 33.3197C84.5862 33.6545 84.2157 33.9216 83.802 34.1035C83.3884 34.2854 82.9411 34.3779 82.4892 34.375H71.6416C71.1916 34.3749 70.7466 34.2801 70.3356 34.0969C69.9245 33.9138 69.5566 33.6462 69.2556 33.3117C68.9546 32.9771 68.7273 32.583 68.5884 32.155C68.4495 31.7269 68.4022 31.2745 68.4494 30.8269ZM84.4586 64.3438H69.6642C69.0641 64.3437 68.4707 64.2175 67.9225 63.9733C67.3744 63.7291 66.8837 63.3724 66.4822 62.9263C66.0808 62.4802 65.7776 61.9547 65.5924 61.3839C65.4072 60.8131 65.344 60.2098 65.4071 59.613L66.7637 46.7692C66.8747 45.7175 67.3711 44.7441 68.1571 44.0366C68.9432 43.3291 69.9633 42.9376 71.0208 42.9375H83.102C84.1596 42.9376 85.1796 43.3291 85.9657 44.0366C86.7518 44.7441 87.2481 45.7175 87.3592 46.7692L88.7158 59.613C88.7788 60.2098 88.7156 60.8131 88.5304 61.3839C88.3452 61.9547 88.042 62.4802 87.6406 62.9263C87.2392 63.3724 86.7485 63.7291 86.2003 63.9733C85.6521 64.2175 85.0587 64.3437 84.4586 64.3438Z" fill="#02527E"/>
</svg>
