<svg width="241" height="48" viewBox="0 0 241 48" fill="none" xmlns="http://www.w3.org/2000/svg">
<path d="M40.3125 4.49609C40.125 4.61328 39.9258 4.68359 39.7148 4.70703C39.5039 4.73047 39.2812 4.76562 39.0469 4.8125C38.8359 4.83594 38.6367 4.88281 38.4492 4.95312C38.2617 5.02344 38.1211 5.15234 38.0273 5.33984C37.793 5.10547 37.5352 4.90625 37.2539 4.74219C36.9727 4.57813 36.6914 4.40234 36.4102 4.21484C36.1758 4.28516 35.9414 4.37891 35.707 4.49609C35.4727 4.61328 35.2383 4.67188 35.0039 4.67188C34.8398 4.67188 34.6758 4.61328 34.5117 4.49609C34.3242 4.63672 34.1016 4.75391 33.8438 4.84766C33.6094 4.91797 33.3516 4.98828 33.0703 5.05859C32.8125 5.12891 32.5664 5.22266 32.332 5.33984C32.1211 5.45703 31.9688 5.63281 31.875 5.86719C31.8281 5.75 31.7109 5.71484 31.5234 5.76172C31.3594 5.80859 31.2656 5.75 31.2422 5.58594C30.4922 5.84375 29.7305 6.06641 28.957 6.25391C28.1836 6.44141 27.4102 6.64062 26.6367 6.85156C25.8633 7.0625 25.1016 7.29687 24.3516 7.55469C23.6016 7.8125 22.875 8.12891 22.1719 8.50391C22.1484 8.52734 22.1367 8.5625 22.1367 8.60938C22.1367 8.84375 22.1719 9.06641 22.2422 9.27734C22.3125 9.48828 22.3711 9.6875 22.418 9.875C21.9961 11.3047 21.7148 12.7578 21.5742 14.2344C21.4336 15.7109 21.2461 17.1641 21.0117 18.5938V18.7344C21.0117 18.8516 21.0586 18.9453 21.1523 19.0156C21.2461 19.0625 21.293 19.1562 21.293 19.2969L21.2578 19.3672C21.1406 19.4375 21.0586 19.543 21.0117 19.6836C20.9648 19.8008 20.9414 19.9297 20.9414 20.0703C20.9414 20.1641 20.9648 20.3047 21.0117 20.4922C20.6133 21.8281 20.3438 23.1875 20.2031 24.5703C20.0859 25.9531 19.9336 27.3359 19.7461 28.7188L19.4297 31.0391C19.3828 31.1797 19.3359 31.3203 19.2891 31.4609C19.2656 31.5781 19.2539 31.707 19.2539 31.8477C19.2539 32.5977 19.3008 33.3359 19.3945 34.0625C19.5117 34.7656 19.5469 35.4922 19.5 36.2422C19.7109 36.5703 19.8164 36.8867 19.8164 37.1914C19.8164 37.3086 19.8047 37.4258 19.7812 37.543C19.7812 37.6602 19.7695 37.7773 19.7461 37.8945C20.0508 38.1992 20.4023 38.4102 20.8008 38.5273C21.2227 38.668 21.5977 38.8789 21.9258 39.1602V39.3008C21.9258 39.5352 21.8906 39.7578 21.8203 39.9688C21.75 40.2031 21.6914 40.4375 21.6445 40.6719C21.5977 40.8594 21.5391 41.1289 21.4688 41.4805C21.4219 41.832 21.3516 42.0664 21.2578 42.1836C21.1406 42.3477 20.9648 42.4883 20.7305 42.6055C20.5195 42.7461 20.3086 42.8164 20.0977 42.8164C20.0273 42.8164 19.9219 42.7812 19.7812 42.7109C19.6641 42.6406 19.5703 42.582 19.5 42.5352C19.3828 42.5352 19.2305 42.5938 19.043 42.7109C18.8555 42.8281 18.668 42.8867 18.4805 42.8867C18.3867 42.8867 18.3047 42.875 18.2344 42.8516C18.1641 42.8516 18.082 42.8281 17.9883 42.7812C17.8945 42.5469 17.7539 42.3359 17.5664 42.1484C17.4023 41.9844 17.2031 41.8203 16.9688 41.6562C16.9922 41.3281 16.9336 41.082 16.793 40.918C16.6523 40.7539 16.5117 40.543 16.3711 40.2852C16.3242 39.957 16.2773 39.582 16.2305 39.1602C16.207 38.7383 16.0312 38.4336 15.7031 38.2461C15.8203 38.082 15.8789 37.8594 15.8789 37.5781C15.8789 37.4609 15.8555 37.332 15.8086 37.1914C15.7852 37.0508 15.7148 36.9453 15.5977 36.875V36.8047C15.5742 36.6875 15.6094 36.6055 15.7031 36.5586C15.8203 36.4883 15.8789 36.3945 15.8789 36.2773V36.1367C15.7148 35.3867 15.6328 34.6016 15.6328 33.7812C15.6328 33.0078 15.6562 32.2461 15.7031 31.4961C15.75 30.7227 15.75 29.9492 15.7031 29.1758C15.8438 29.0586 15.9492 28.8711 16.0195 28.6133C16.1133 28.3555 16.1836 28.0742 16.2305 27.7695C16.2773 27.4648 16.3008 27.1719 16.3008 26.8906C16.3242 26.5859 16.3477 26.3398 16.3711 26.1523C16.4883 24.8164 16.6758 23.5039 16.9336 22.2148C17.1914 20.9023 17.3438 19.5664 17.3906 18.207C17.5078 18.0195 17.5781 17.7734 17.6016 17.4688C17.625 17.1641 17.6367 16.8477 17.6367 16.5195C17.6367 16.168 17.6602 15.8281 17.707 15.5C17.7539 15.1719 17.8477 14.8906 17.9883 14.6562C17.9883 14 18.0469 13.3438 18.1641 12.6875C18.2812 12.0078 18.3398 11.3281 18.3398 10.6484C18.3398 10.3203 18.3047 9.98047 18.2344 9.62891C18 9.53516 17.7891 9.48828 17.6016 9.48828C17.3438 9.48828 17.0742 9.54687 16.793 9.66406C16.5352 9.75781 16.3477 9.91016 16.2305 10.1211C15.7148 10.1445 15.2109 10.2266 14.7188 10.3672C14.2266 10.5078 13.7344 10.5781 13.2422 10.5781H12.8906C12.7969 10.5781 12.6914 10.5664 12.5742 10.543C12.4102 10.6133 12.2344 10.6719 12.0469 10.7188C11.8828 10.7656 11.8125 10.9063 11.8359 11.1406C11.1094 11.2109 10.3945 11.3633 9.69141 11.5977C9.01172 11.832 8.33203 12.0898 7.65234 12.3711C6.97266 12.6289 6.29297 12.875 5.61328 13.1094C4.91016 13.3438 4.19531 13.4961 3.46875 13.5664C3.21094 13.6836 3.04688 13.9297 2.97656 14.3047C2.46094 14.2578 2.02734 14.1289 1.67578 13.918C1.32422 13.707 0.914062 13.5078 0.445312 13.3203C0.304688 12.8281 0.234375 12.3594 0.234375 11.9141C0.234375 11.3281 0.351562 10.7656 0.585938 10.2266C0.820312 9.6875 1.19531 9.28906 1.71094 9.03125C1.82812 9.05469 1.93359 9.07813 2.02734 9.10156C2.12109 9.10156 2.22656 9.10156 2.34375 9.10156C2.71875 9.10156 3.09375 9.03125 3.46875 8.89062C3.84375 8.75 4.23047 8.67969 4.62891 8.67969C4.74609 8.67969 4.875 8.71484 5.01562 8.78516C5.17969 8.69141 5.39062 8.62109 5.64844 8.57422C5.88281 8.50391 6.10547 8.44531 6.31641 8.39844C6.55078 8.32812 6.76172 8.23438 6.94922 8.11719C7.13672 8 7.25391 7.83594 7.30078 7.625C7.41797 7.71875 7.54688 7.77734 7.6875 7.80078C7.82812 7.82422 7.96875 7.83594 8.10938 7.83594C8.41406 7.83594 8.73047 7.77734 9.05859 7.66016C9.38672 7.54297 9.64453 7.35547 9.83203 7.09766C9.99609 7.28516 10.2305 7.37891 10.5352 7.37891C10.8633 7.37891 11.1797 7.29687 11.4844 7.13281C11.8125 6.94531 12.1289 6.85156 12.4336 6.85156C12.668 6.85156 12.8438 6.93359 12.9609 7.09766C13.2188 6.88672 13.5234 6.72266 13.875 6.60547C14.2266 6.48828 14.5781 6.38281 14.9297 6.28906C15.3047 6.19531 15.6445 6.08984 15.9492 5.97266C16.2773 5.85547 16.5352 5.69141 16.7227 5.48047C16.8398 5.50391 17.0273 5.51562 17.2852 5.51562C17.6836 5.51562 18.0586 5.46875 18.4102 5.375C18.7852 5.25781 19.1602 5.15234 19.5352 5.05859L20.2734 4.98828C20.4609 4.96484 20.625 4.90625 20.7656 4.8125C20.9297 4.71875 21.0938 4.63672 21.2578 4.56641C21.4219 4.49609 21.5859 4.4375 21.75 4.39062C21.9375 4.34375 22.1602 4.33203 22.418 4.35547C22.9805 4.05078 23.5781 3.81641 24.2109 3.65234C24.8438 3.48828 25.4883 3.34766 26.1445 3.23047C26.8008 3.08984 27.4453 2.9375 28.0781 2.77344C28.7109 2.58594 29.3086 2.31641 29.8711 1.96484H29.9766C30.4453 1.96484 30.9023 1.88281 31.3477 1.71875C31.8164 1.55469 32.25 1.33203 32.6484 1.05078C32.7188 1.07422 32.7891 1.08594 32.8594 1.08594H33.1055C33.7617 1.08594 34.3945 0.992187 35.0039 0.804688C35.6367 0.617188 36.293 0.523438 36.9727 0.523438C37.3711 0.523438 37.6875 0.582031 37.9219 0.699219C38.1562 0.792969 38.3672 0.921875 38.5547 1.08594C38.7422 1.22656 38.9414 1.36719 39.1523 1.50781C39.3633 1.64844 39.6328 1.75391 39.9609 1.82422C40.1719 2.22266 40.2773 2.65625 40.2773 3.125C40.2773 3.57031 40.2891 4.02734 40.3125 4.49609ZM74.5547 31.8828C74.5078 32.2344 74.3789 32.5039 74.168 32.6914C73.9805 32.8789 73.7578 33.0547 73.5 33.2188C73.3828 33.1953 73.2656 33.1836 73.1484 33.1836C73.0547 33.1602 72.9492 33.1484 72.832 33.1484C72.1055 33.125 71.4141 33.2188 70.7578 33.4297C70.125 33.6406 69.4688 33.793 68.7891 33.8867C68.5547 33.9336 68.332 33.957 68.1211 33.957C67.9336 33.9336 67.7344 33.9453 67.5234 33.9922C66.7734 34.1094 65.9766 34.2031 65.1328 34.2734C64.2891 34.3438 63.4453 34.4375 62.6016 34.5547C61.7578 34.6484 60.9258 34.7773 60.1055 34.9414C59.3086 35.082 58.5586 35.293 57.8555 35.5742C57.7852 35.5273 57.7148 35.4805 57.6445 35.4336C57.5742 35.3633 57.4922 35.3281 57.3984 35.3281C57.1641 35.3281 56.9414 35.3633 56.7305 35.4336C56.5195 35.5039 56.3086 35.5273 56.0977 35.5039C55.8633 35.6445 55.6055 35.75 55.3242 35.8203C55.0664 35.8672 54.7969 35.9141 54.5156 35.9609C54.2578 35.9844 54 36.0312 53.7422 36.1016C53.4844 36.1719 53.2383 36.3008 53.0039 36.4883C52.8164 36.3945 52.582 36.3477 52.3008 36.3477C52.043 36.3242 51.8672 36.2305 51.7734 36.0664C51.2344 36.3242 50.6602 36.4883 50.0508 36.5586C49.4648 36.6289 48.8672 36.6523 48.2578 36.6289C47.8594 36.6055 47.4023 36.5469 46.8867 36.4531C46.3711 36.3594 45.8555 36.2305 45.3398 36.0664C44.8242 35.8789 44.3438 35.668 43.8984 35.4336C43.4531 35.1758 43.1133 34.8711 42.8789 34.5195C42.7148 34.2852 42.5977 34.0273 42.5273 33.7461C42.457 33.4648 42.293 33.2539 42.0352 33.1133C42.1055 32.5742 42.1875 32.0469 42.2812 31.5312C42.375 31.0156 42.4688 30.4883 42.5625 29.9492C43.0312 29.5508 43.4766 29.1289 43.8984 28.6836C44.3203 28.2383 44.7188 27.7695 45.0938 27.2773C45.5391 27.0664 45.9492 26.8086 46.3242 26.5039C46.7227 26.1992 47.1094 25.8945 47.4844 25.5898C47.8828 25.2617 48.2695 24.9453 48.6445 24.6406C49.043 24.3359 49.4648 24.0664 49.9102 23.832C49.9805 23.668 50.0742 23.5391 50.1914 23.4453C50.332 23.3281 50.4727 23.2227 50.6133 23.1289C50.7539 23.0117 50.8828 22.8945 51 22.7773C51.1172 22.6367 51.1992 22.4727 51.2461 22.2852C52.0664 21.793 52.7812 21.1719 53.3906 20.4219C54 19.6719 54.3984 18.8281 54.5859 17.8906C54.1875 17.5625 53.7305 17.3516 53.2148 17.2578C52.7227 17.1406 52.207 17.0586 51.668 17.0117C51.1992 16.9883 50.707 16.9883 50.1914 17.0117C49.6992 17.0352 49.1953 17.0234 48.6797 16.9766C48.1641 17.1406 47.625 17.2461 47.0625 17.293C46.5234 17.3398 45.9844 17.3867 45.4453 17.4336C44.9062 17.457 44.3672 17.5273 43.8281 17.6445C43.3125 17.7383 42.8086 17.9258 42.3164 18.207C42.2227 18.207 42.1289 18.1953 42.0352 18.1719C41.9648 18.1484 41.8828 18.1367 41.7891 18.1367C41.0391 18.1133 40.3359 18.2656 39.6797 18.5938C39.0234 18.8984 38.3789 19.2031 37.7461 19.5078C37.6992 19.6016 37.6758 19.6719 37.6758 19.7188C37.6758 19.8594 37.6992 20 37.7461 20.1406C37.8164 20.2578 37.8516 20.3867 37.8516 20.5273C37.8281 20.5508 37.8164 20.5742 37.8164 20.5977C37.8164 20.6211 37.8047 20.6445 37.7812 20.668C37.7578 20.7852 37.7227 20.8906 37.6758 20.9844C37.6523 21.0781 37.6172 21.1836 37.5703 21.3008C37.3125 22.0508 37.1719 22.7891 37.1484 23.5156C37.125 24.125 37.125 24.7227 37.1484 25.3086C37.1719 25.8945 37.1719 26.4922 37.1484 27.1016C37.1016 27.8516 36.9844 28.5547 36.7969 29.2109C36.9141 29.7734 37.0195 30.3711 37.1133 31.0039C37.207 31.6133 37.3242 32.2227 37.4648 32.832C37.6055 33.4414 37.7695 34.0391 37.957 34.625C38.168 35.1875 38.4375 35.7266 38.7656 36.2422C38.7422 36.2891 38.7539 36.3242 38.8008 36.3477C38.8477 36.3711 38.8945 36.3828 38.9414 36.3828H39.2227C39.3398 36.3828 39.3867 36.4297 39.3633 36.5234C39.4102 36.5938 39.4453 36.6641 39.4688 36.7344C39.4922 36.7812 39.5391 36.8281 39.6094 36.875C39.6562 36.9453 39.6562 37.0391 39.6094 37.1562C39.5859 37.625 39.4688 38.0586 39.2578 38.457C39.0469 38.8555 38.918 39.2891 38.8711 39.7578C38.5898 39.8281 38.332 39.8633 38.0977 39.8633C37.6992 39.8398 37.3477 39.7227 37.043 39.5117C36.7383 39.3242 36.457 39.0898 36.1992 38.8086C35.9414 38.5273 35.6953 38.2461 35.4609 37.9648C35.2266 37.6602 34.9688 37.4023 34.6875 37.1914C34.5234 36.5352 34.3594 35.8086 34.1953 35.0117C34.0547 34.2148 33.8086 33.5352 33.457 32.9727C33.5508 32.7617 33.5977 32.5039 33.5977 32.1992C33.6211 31.7305 33.5742 31.2734 33.457 30.8281C33.3633 30.3594 33.3398 29.8906 33.3867 29.4219C33.3867 29.1641 33.4102 28.9062 33.457 28.6484C33.5273 28.3906 33.5742 28.1328 33.5977 27.875C33.6211 27.4766 33.5742 27.0898 33.457 26.7148C33.3633 26.3398 33.3281 25.9531 33.3516 25.5547C33.375 25.3672 33.4102 25.1914 33.457 25.0273C33.5273 24.8398 33.6211 24.6758 33.7383 24.5352C33.6211 24.2539 33.5859 23.9844 33.6328 23.7266C33.6562 23.3281 33.7031 22.9531 33.7734 22.6016C33.8438 22.25 33.8906 21.8984 33.9141 21.5469C33.9141 21.3594 33.9023 21.1836 33.8789 21.0195C33.8555 20.832 33.8203 20.6562 33.7734 20.4922L33.457 20.3867C33.3164 20.3867 33.1758 20.4219 33.0352 20.4922C32.918 20.5625 32.8125 20.6445 32.7188 20.7383C32.625 20.832 32.543 20.9141 32.4727 20.9844C32.4023 21.0312 32.332 21.0547 32.2617 21.0547C32.2148 21.0547 32.1562 21.0547 32.0859 21.0547C32.0391 21.0312 31.9922 21.0195 31.9453 21.0195C31.8984 21.0195 31.8047 21.0664 31.6641 21.1602C31.5469 21.2539 31.3945 21.3594 31.207 21.4766C31.043 21.5703 30.8789 21.6758 30.7148 21.793C30.5508 21.8867 30.4219 21.9453 30.3281 21.9688C30.0703 21.9219 29.8594 21.8398 29.6953 21.7227C29.5547 21.582 29.4141 21.4531 29.2734 21.3359C29.1562 21.1953 29.0273 21.0781 28.8867 20.9844C28.7461 20.8672 28.5703 20.8203 28.3594 20.8438C28.2891 20.7031 28.2539 20.5508 28.2539 20.3867C28.2305 20.2227 28.2305 20.0586 28.2539 19.8945V19.332C28.418 19.0273 28.6406 18.7812 28.9219 18.5938C29.1797 18.3828 29.4609 18.207 29.7656 18.0664L30.6797 17.6445C30.9844 17.5039 31.2656 17.3281 31.5234 17.1172H31.8398C32.2617 17.1406 32.625 17.0586 32.9297 16.8711C33.2578 16.6836 33.5625 16.4727 33.8438 16.2383C34.125 15.9805 34.4062 15.7227 34.6875 15.4648C34.9922 15.207 35.3203 15.0078 35.6719 14.8672C35.9297 14.9844 36.1992 15.0898 36.4805 15.1836C36.7617 15.2539 37.0547 15.3008 37.3594 15.3242C37.6641 15.3242 37.9805 15.2773 38.3086 15.1836C38.6367 15.0898 38.8945 14.9141 39.082 14.6562C39.1992 14.7031 39.293 14.7383 39.3633 14.7617C39.457 14.7617 39.5625 14.7617 39.6797 14.7617C40.0312 14.7852 40.3828 14.7383 40.7344 14.6211C41.0859 14.4805 41.4258 14.3164 41.7539 14.1289C42.2227 14.1523 42.6797 14.1289 43.125 14.0586C43.5938 13.9648 44.0508 13.8711 44.4961 13.7773C44.9648 13.6836 45.4219 13.6016 45.8672 13.5312C46.3359 13.4375 46.8047 13.4023 47.2734 13.4258C48.0469 13.4492 48.8086 13.3789 49.5586 13.2148C50.3086 13.0508 51.0703 12.9922 51.8438 13.0391C52.3828 13.0625 52.9102 13.1094 53.4258 13.1797C53.9648 13.2266 54.5039 13.2383 55.043 13.2148C55.3477 13.3555 55.6172 13.4844 55.8516 13.6016C56.1094 13.6953 56.4258 13.7188 56.8008 13.6719C57.5508 14.3047 58.2305 15.043 58.8398 15.8867V16.4844C58.8164 17.0234 58.7227 17.5508 58.5586 18.0664C58.3945 18.582 58.1953 19.0977 57.9609 19.6133C57.75 20.1055 57.5156 20.5977 57.2578 21.0898C57 21.5586 56.7539 22.0273 56.5195 22.4961C54.9961 23.8789 53.4727 25.25 51.9492 26.6094C50.4258 27.9688 48.8555 29.2812 47.2383 30.5469C47.1914 30.7812 47.1211 30.9922 47.0273 31.1797C46.957 31.3672 46.9102 31.5664 46.8867 31.7773C46.8867 31.8945 46.8984 31.9883 46.9219 32.0586C47.0859 32.1055 47.2266 32.1992 47.3438 32.3398C47.4844 32.457 47.5312 32.6211 47.4844 32.832H47.8008C47.918 32.832 47.9766 32.8789 47.9766 32.9727L48.5391 33.0078C49.4297 33.0547 50.3203 33.0312 51.2109 32.9375C52.1016 32.8438 52.9922 32.7383 53.8828 32.6211C54.7969 32.5039 55.6992 32.3984 56.5898 32.3047C57.4805 32.1875 58.3711 32.1172 59.2617 32.0938C59.4727 32.0234 59.6953 31.9648 59.9297 31.918C60.1641 31.8711 60.375 31.7773 60.5625 31.6367H60.668C60.832 31.6367 60.9492 31.6836 61.0195 31.7773C61.1133 31.8711 61.2422 31.9297 61.4062 31.9531C61.5234 31.9531 61.6406 31.9297 61.7578 31.8828C61.8984 31.8359 62.0391 31.8008 62.1797 31.7773C62.5078 31.6836 62.8477 31.625 63.1992 31.6016C63.5742 31.5781 63.9375 31.543 64.2891 31.4961C65.6484 31.3789 66.9961 31.3086 68.332 31.2852C69.668 31.2383 71.0039 31.0625 72.3398 30.7578C72.457 30.9219 72.6211 31.0391 72.832 31.1094C73.043 31.1562 73.2656 31.2148 73.5 31.2852C73.7344 31.332 73.9453 31.3906 74.1328 31.4609C74.3438 31.5312 74.4844 31.6719 74.5547 31.8828ZM90.7266 35.4336C90.6562 35.7617 90.5039 36.0312 90.2695 36.2422C90.0586 36.4297 89.8008 36.582 89.4961 36.6992C89.1914 36.8164 88.875 36.8984 88.5469 36.9453C88.2422 36.9688 87.9609 36.9805 87.7031 36.9805C87.5859 36.9805 87.4688 36.9805 87.3516 36.9805C87.2578 36.957 87.1523 36.9453 87.0352 36.9453C86.918 36.9453 86.8594 37.0039 86.8594 37.1211C86.8594 37.2383 86.8008 37.3203 86.6836 37.3672C86.5664 37.3203 86.4492 37.2852 86.332 37.2617C86.2148 37.2383 86.0977 37.2266 85.9805 37.2266C85.8164 37.2266 85.6523 37.2383 85.4883 37.2617C85.3477 37.2852 85.207 37.2969 85.0664 37.2969C84.8789 37.2969 84.7383 37.2734 84.6445 37.2266C84.5742 37.1797 84.5039 37.1328 84.4336 37.0859C84.3867 37.0156 84.3281 36.9453 84.2578 36.875C84.2109 36.8047 84.1289 36.7461 84.0117 36.6992C83.8477 36.6289 83.707 36.6172 83.5898 36.6641C83.4961 36.7109 83.3438 36.6406 83.1328 36.4531C82.8516 36.2188 82.6055 35.9375 82.3945 35.6094C82.207 35.2578 82.0195 34.8945 81.832 34.5195C81.6445 34.1445 81.4453 33.7695 81.2344 33.3945C81.0234 33.0195 80.7773 32.6914 80.4961 32.4102H80.2148C79.793 32.4102 79.5 32.5859 79.3359 32.9375C79.2188 32.8672 79.1016 32.7852 78.9844 32.6914C78.8672 32.5742 78.7383 32.4805 78.5977 32.4102C78.0586 32.5742 77.4961 32.7148 76.9102 32.832C76.3242 32.9492 75.7383 33.0078 75.1523 33.0078H74.6602C74.5195 33.0078 74.3672 32.9844 74.2031 32.9375C73.9688 33.0312 73.7578 33.1484 73.5703 33.2891C73.3828 33.4062 73.1719 33.4648 72.9375 33.4648C72.7969 33.4648 72.6328 33.418 72.4453 33.3242C72.3047 33.3242 72.2344 33.3828 72.2344 33.5C72.2578 33.6172 72.1875 33.6758 72.0234 33.6758H71.707C71.3789 33.6758 71.0508 33.6875 70.7227 33.7109C70.418 33.7344 70.1016 33.7461 69.7734 33.7461C69.3281 33.7461 68.8711 33.6875 68.4023 33.5703C68.2852 33.6406 68.1562 33.6758 68.0156 33.6758C67.9219 33.7227 67.8516 33.8047 67.8047 33.9219C67.7578 34.0156 67.7109 34.1094 67.6641 34.2031C67.6172 34.2734 67.5469 34.3438 67.4531 34.4141C67.3828 34.4609 67.2773 34.4727 67.1367 34.4492C67.0898 34.7305 66.9727 34.9531 66.7852 35.1172C66.5977 35.2812 66.5039 35.5273 66.5039 35.8555C66.2461 35.9961 66.0352 36.1719 65.8711 36.3828C65.707 36.5938 65.543 36.8164 65.3789 37.0508C65.2148 37.2852 65.0391 37.5078 64.8516 37.7188C64.6875 37.9297 64.4766 38.0938 64.2188 38.2109C64.1016 38.3516 64.0664 38.5742 64.1133 38.8789C63.8555 39.0898 63.5391 39.2773 63.1641 39.4414C62.7891 39.6055 62.4375 39.6875 62.1094 39.6875C61.4297 39.6875 60.9609 39.3242 60.7031 38.5977C60.7031 38.3633 60.7266 38.1172 60.7734 37.8594C60.7969 37.5781 60.8438 37.3203 60.9141 37.0859C60.9844 36.8281 61.0898 36.6055 61.2305 36.418C61.3711 36.207 61.5703 36.0547 61.8281 35.9609C61.8281 35.75 61.7578 35.6094 61.6172 35.5391C61.4766 35.4453 61.418 35.293 61.4414 35.082C62.0742 34.7773 62.625 34.3789 63.0938 33.8867C63.5625 33.3945 63.9844 32.8789 64.3594 32.3398C64.7578 31.7773 65.1562 31.2148 65.5547 30.6523C65.9531 30.0898 66.3984 29.5859 66.8906 29.1406V28.4023C67.5938 27.6523 68.0508 26.8086 68.2617 25.8711C68.5195 25.8242 68.6836 25.707 68.7539 25.5195C68.8477 25.332 68.8945 25.1094 68.8945 24.8516C69.0117 24.8516 69.082 24.8047 69.1055 24.7109C69.1523 24.5938 69.2578 24.5586 69.4219 24.6055C69.6328 24.043 69.8672 23.5273 70.125 23.0586C70.3828 22.5898 70.6406 22.1211 70.8984 21.6523C71.1562 21.1602 71.3789 20.6562 71.5664 20.1406C71.7773 19.625 71.9297 19.0508 72.0234 18.418C72.3516 18.3945 72.5273 18.2422 72.5508 17.9609C72.5977 17.6562 72.6445 17.3867 72.6914 17.1523C73.043 16.8242 73.3008 16.4375 73.4648 15.9922C73.6523 15.5469 73.8164 15.0898 73.957 14.6211C74.0977 14.1289 74.25 13.6484 74.4141 13.1797C74.6016 12.6875 74.8594 12.2539 75.1875 11.8789V11.7734C75.1875 11.6562 75.1406 11.5859 75.0469 11.5625C74.9531 11.5156 74.9062 11.4336 74.9062 11.3164C74.9297 11.293 74.9414 11.2695 74.9414 11.2461C75.2227 11.1289 75.4336 10.9414 75.5742 10.6836C75.7148 10.4023 75.9258 10.2031 76.207 10.0859C76.6992 10.4844 77.1328 10.7305 77.5078 10.8242C77.8828 10.8945 78.375 10.9531 78.9844 11C79.2891 11.3281 79.4531 11.7266 79.4766 12.1953C79.5234 12.6406 79.6055 13.0859 79.7227 13.5312C79.9102 14.2812 80.1094 15.0195 80.3203 15.7461C80.5547 16.4492 80.7305 17.1758 80.8477 17.9258C80.918 18.3711 81.0469 18.793 81.2344 19.1914C81.4219 19.5898 81.5508 20 81.6211 20.4219C81.668 20.75 81.668 21.125 81.6211 21.5469C81.5742 21.9453 81.6211 22.2969 81.7617 22.6016L82.0078 23.1641C82.125 23.4219 82.2188 23.6914 82.2891 23.9727C82.3828 24.2539 82.4648 24.5352 82.5352 24.8164C82.7227 25.5195 82.8867 26.2812 83.0273 27.1016C83.1914 27.8984 83.4375 28.625 83.7656 29.2812C83.8828 29.5156 84.0586 29.6797 84.293 29.7734C84.5508 29.8672 84.832 29.9375 85.1367 29.9844C85.4414 30.0078 85.7344 30.0195 86.0156 30.0195C86.3203 29.9961 86.5781 29.9844 86.7891 29.9844H87.1406C87.2812 29.9844 87.4219 30.0078 87.5625 30.0547C87.6562 30.2422 87.7031 30.4062 87.7031 30.5469C87.7031 30.8281 87.6094 31.0508 87.4219 31.2148C87.2344 31.3789 87.1406 31.5664 87.1406 31.7773C87.1406 31.8945 87.1875 32.0234 87.2812 32.1641C87.1875 32.1406 87.0469 32.1289 86.8594 32.1289C86.3203 32.1289 85.793 32.2227 85.2773 32.4102C85.4648 32.8086 85.7109 33.1484 86.0156 33.4297C86.3438 33.6875 86.6836 33.9336 87.0352 34.168C87.2695 33.9805 87.5156 33.8867 87.7734 33.8867C88.0547 33.8867 88.3125 33.957 88.5469 34.0977C88.8047 34.2148 89.0742 34.2734 89.3555 34.2734C89.5664 34.2734 89.7188 34.2383 89.8125 34.168C90 34.3789 90.1523 34.6016 90.2695 34.8359C90.3867 35.0469 90.5391 35.2461 90.7266 35.4336ZM79.7227 29.8086C79.6758 29.4102 79.5938 29.1289 79.4766 28.9648C79.3828 28.7773 79.3008 28.5547 79.2305 28.2969C79.1367 27.9688 79.0664 27.6172 79.0195 27.2422C78.9961 26.8672 78.9492 26.5039 78.8789 26.1523C78.7148 25.3555 78.5273 24.5586 78.3164 23.7617C78.1289 22.9648 77.8828 22.1914 77.5781 21.4414C77.6719 21.3008 77.7188 21.1719 77.7188 21.0547V20.9492C77.5078 20.7148 77.3555 20.4336 77.2617 20.1055C77.168 19.7539 77.0742 19.4141 76.9805 19.0859C76.9102 18.7344 76.8047 18.418 76.6641 18.1367C76.5469 17.832 76.3477 17.5859 76.0664 17.3984C75.9961 17.5391 75.9609 17.7031 75.9609 17.8906C75.9609 18.0547 75.9727 18.207 75.9961 18.3477C76.043 18.4883 76.0664 18.6406 76.0664 18.8047C75.832 18.9219 75.6562 19.1094 75.5391 19.3672C75.4453 19.6016 75.2812 19.7891 75.0469 19.9297C74.8594 20.6797 74.5898 21.3945 74.2383 22.0742C73.8867 22.7305 73.5117 23.3867 73.1133 24.043C72.7383 24.6992 72.375 25.3672 72.0234 26.0469C71.6719 26.7031 71.3906 27.3945 71.1797 28.1211C70.875 28.332 70.6641 28.6016 70.5469 28.9297C70.4531 29.2578 70.4062 29.5859 70.4062 29.9141C70.6172 30.0312 70.8516 30.1016 71.1094 30.125C71.3906 30.125 71.6602 30.125 71.918 30.125C72.1758 30.125 72.4219 30.1484 72.6562 30.1953C72.8906 30.2422 73.1016 30.3594 73.2891 30.5469C73.5938 30.4531 73.9219 30.3945 74.2734 30.3711C74.6484 30.3242 74.9531 30.2188 75.1875 30.0547C75.6562 30.2188 76.1602 30.3008 76.6992 30.3008C76.9805 30.3008 77.25 30.2773 77.5078 30.2305C77.7891 30.1836 78.0586 30.125 78.3164 30.0547C78.5273 30.1016 78.6914 30.1836 78.8086 30.3008C78.9258 30.3945 79.1016 30.4297 79.3359 30.4062C79.4531 30.3125 79.5234 30.2188 79.5469 30.125C79.5703 30.0078 79.6289 29.9023 79.7227 29.8086ZM108.656 12.9688C108.656 13.3672 108.633 13.7539 108.586 14.1289C108.562 14.4805 108.492 14.8555 108.375 15.2539C108.164 15.418 107.977 15.6172 107.812 15.8516L107.32 16.5195C107.156 16.7305 106.98 16.9414 106.793 17.1523C106.605 17.3398 106.371 17.4922 106.09 17.6094C105.855 18.6406 105.562 19.6367 105.211 20.5977C104.883 21.5352 104.637 22.5195 104.473 23.5508C104.191 24.0664 103.969 24.6289 103.805 25.2383C103.641 25.8477 103.465 26.4688 103.277 27.1016C103.113 27.7109 102.926 28.2969 102.715 28.8594C102.504 29.4219 102.211 29.9258 101.836 30.3711C101.648 30.9336 101.461 31.543 101.273 32.1992C101.086 32.832 100.77 33.3594 100.324 33.7812C100.348 33.8281 100.359 33.8984 100.359 33.9922C100.359 34.2734 100.289 34.543 100.148 34.8008C100.008 35.0352 99.9375 35.2812 99.9375 35.5391C99.5625 35.8203 99.1992 36.1484 98.8477 36.5234C98.5195 36.8984 98.1797 37.2734 97.8281 37.6484C97.4766 38.0234 97.1016 38.3516 96.7031 38.6328C96.3047 38.9141 95.8711 39.1016 95.4023 39.1953C95.0742 38.9609 94.7695 38.6914 94.4883 38.3867C94.207 38.1055 93.8789 37.8711 93.5039 37.6836C93.3164 36.6289 93.1992 35.5977 93.1523 34.5898C93.1289 33.5586 93.0469 32.5391 92.9062 31.5312C92.8125 30.9453 92.6602 30.3828 92.4492 29.8438C92.2617 29.3047 92.168 28.7539 92.168 28.1914C92.168 28.0742 92.168 27.957 92.168 27.8398C92.1914 27.6992 92.2148 27.5703 92.2383 27.4531C92.0039 27.1953 91.8516 26.8789 91.7812 26.5039C91.7109 26.1055 91.6523 25.707 91.6055 25.3086C91.5586 24.8867 91.4883 24.4766 91.3945 24.0781C91.3242 23.6797 91.1836 23.3398 90.9727 23.0586C91.0664 22.9648 91.1133 22.8359 91.1133 22.6719C91.1133 22.5547 91.0898 22.4375 91.043 22.3203C91.0195 22.2031 91.0078 22.0859 91.0078 21.9688C91.0078 21.875 91.043 21.7695 91.1133 21.6523C90.9258 21.418 90.7969 21.207 90.7266 21.0195C90.6797 20.8086 90.6445 20.6094 90.6211 20.4219C90.5977 20.2109 90.5742 20 90.5508 19.7891C90.5508 19.5781 90.5273 19.3555 90.4805 19.1211C90.4336 18.957 90.3516 18.8398 90.2344 18.7695C90.1406 18.6758 90.0938 18.6055 90.0938 18.5586C90.0938 18.4414 90.1406 18.3477 90.2344 18.2773C89.9062 17.8086 89.6367 17.3164 89.4258 16.8008C89.2148 16.2852 88.9805 15.7695 88.7227 15.2539C88.7461 14.9961 88.8398 14.7969 89.0039 14.6562C89.168 14.5156 89.2852 14.3281 89.3555 14.0938H90.4805C91.5117 16.1094 92.2969 18.207 92.8359 20.3867C93.3984 22.543 93.8906 24.7227 94.3125 26.9258C94.4297 27.5586 94.5352 28.1914 94.6289 28.8242C94.7461 29.457 94.875 30.1016 95.0156 30.7578C95.0625 30.8984 95.1328 31.0508 95.2266 31.2148C95.3203 31.3789 95.3672 31.543 95.3672 31.707C95.3672 31.8477 95.332 31.9883 95.2617 32.1289C95.4023 32.2227 95.5078 32.3516 95.5781 32.5156C95.6719 32.6797 95.7422 32.8555 95.7891 33.043C95.8594 33.207 95.918 33.3828 95.9648 33.5703C96.0117 33.7344 96.082 33.8867 96.1758 34.0273C96.457 34.0039 96.7031 33.875 96.9141 33.6406C97.125 33.4062 97.3125 33.1367 97.4766 32.832C97.6641 32.5039 97.8281 32.1875 97.9688 31.8828C98.1328 31.5547 98.3203 31.2969 98.5312 31.1094C98.5547 30.8516 98.6016 30.6055 98.6719 30.3711C98.7656 30.1133 98.8125 29.8555 98.8125 29.5977C99.0469 29.1992 99.2578 28.8242 99.4453 28.4727C99.6328 28.1211 99.75 27.6992 99.7969 27.207C99.9141 27.1133 99.9844 27.043 100.008 26.9961C100.031 26.9258 100.137 26.9141 100.324 26.9609C100.324 26.3281 100.418 25.7188 100.605 25.1328C100.816 24.5234 101.098 23.9492 101.449 23.4102C101.496 22.8711 101.602 22.332 101.766 21.793C101.953 21.2305 102.164 20.6797 102.398 20.1406C102.469 19.9766 102.562 19.7891 102.68 19.5781C102.797 19.3438 102.855 19.1328 102.855 18.9453C102.855 18.8516 102.832 18.7695 102.785 18.6992C102.762 18.6055 102.75 18.5117 102.75 18.418C102.75 18.2305 102.82 18.0664 102.961 17.9258C103.102 17.7852 103.23 17.6445 103.348 17.5039C103.348 16.9648 103.406 16.4258 103.523 15.8867C103.641 15.3477 103.875 14.8789 104.227 14.4805C104.344 13.6836 104.496 12.9102 104.684 12.1602C104.871 11.3867 105.141 10.6484 105.492 9.94531H106.758C106.758 9.5 106.957 9.27734 107.355 9.27734C107.59 9.27734 107.848 9.33594 108.129 9.45312C108.316 9.96875 108.445 10.5547 108.516 11.2109C108.609 11.8438 108.656 12.4297 108.656 12.9688ZM130.84 15.6406V15.7812C130.676 15.8281 130.594 15.9453 130.594 16.1328C130.336 16.25 130.066 16.3438 129.785 16.4141C129.504 16.4609 129.234 16.543 128.977 16.6602C128.719 16.6367 128.449 16.625 128.168 16.625C127.91 16.6016 127.652 16.5898 127.395 16.5898C126.691 16.5898 125.988 16.6133 125.285 16.6602C124.582 16.707 123.879 16.707 123.176 16.6602C122.848 16.8477 122.484 17 122.086 17.1172C121.711 17.2109 121.348 17.2578 120.996 17.2578C120.715 17.2578 120.469 17.2227 120.258 17.1523C119.695 17.4336 119.074 17.668 118.395 17.8555C117.738 18.043 117.07 18.2305 116.391 18.418C115.711 18.582 115.055 18.7812 114.422 19.0156C113.812 19.2266 113.273 19.5312 112.805 19.9297C112.758 20.2578 112.723 20.5859 112.699 20.9141C112.676 21.2188 112.664 21.5234 112.664 21.8281C112.664 22.1562 112.676 22.4609 112.699 22.7422C112.746 23.0234 112.828 23.3047 112.945 23.5859C113.062 23.6328 113.191 23.668 113.332 23.6914C113.496 23.7148 113.637 23.7266 113.754 23.7266C113.871 23.7266 113.988 23.7148 114.105 23.6914C114.223 23.6445 114.305 23.5625 114.352 23.4453C114.703 23.3984 115.055 23.3867 115.406 23.4102C115.758 23.4102 116.109 23.4102 116.461 23.4102C116.812 23.4102 117.152 23.3984 117.48 23.375C117.832 23.3516 118.172 23.293 118.5 23.1992C118.875 23.1055 119.238 23.0469 119.59 23.0234C119.965 23 120.328 22.9766 120.68 22.9531C121.031 22.9297 121.395 22.8945 121.77 22.8477C122.145 22.7773 122.531 22.6484 122.93 22.4609C123.234 22.5781 123.539 22.6367 123.844 22.6367C124.172 22.6367 124.488 22.6602 124.793 22.707C124.957 22.8242 125.086 22.9531 125.18 23.0938C125.297 23.2344 125.355 23.3984 125.355 23.5859C125.355 23.9141 125.238 24.2422 125.004 24.5703C124.77 24.8984 124.582 25.2031 124.441 25.4844H124.055C123.492 25.4844 122.941 25.5664 122.402 25.7305C121.887 25.8711 121.359 26.0469 120.82 26.2578C120.305 26.4453 119.777 26.6211 119.238 26.7852C118.723 26.9258 118.184 26.9961 117.621 26.9961C117.527 26.9961 117.469 27.0547 117.445 27.1719C117.445 27.2656 117.422 27.3359 117.375 27.3828C117.258 27.3594 117.082 27.3477 116.848 27.3477C116.309 27.3477 115.793 27.4062 115.301 27.5234C114.809 27.6406 114.305 27.6992 113.789 27.6992C113.648 27.6992 113.508 27.6992 113.367 27.6992C113.227 27.6758 113.086 27.6523 112.945 27.6289C112.828 27.8164 112.676 27.9453 112.488 28.0156C112.301 28.0625 112.125 28.1562 111.961 28.2969C111.891 28.5078 111.844 28.7656 111.82 29.0703C111.82 29.375 111.809 29.6914 111.785 30.0195C111.785 30.3242 111.762 30.6172 111.715 30.8984C111.668 31.1797 111.574 31.4023 111.434 31.5664C111.457 31.6836 111.551 31.7305 111.715 31.707C111.879 31.6602 111.961 31.7305 111.961 31.918C111.961 32.1289 111.938 32.3516 111.891 32.5859C111.844 32.8203 111.82 33.0547 111.82 33.2891C111.82 33.7344 111.867 34.2266 111.961 34.7656C112.078 35.2812 112.242 35.7617 112.453 36.207C112.688 36.6523 112.992 37.0273 113.367 37.332C113.742 37.6133 114.211 37.7539 114.773 37.7539C115.148 37.7539 115.5 37.6836 115.828 37.543C116.156 37.4023 116.426 37.168 116.637 36.8398L116.812 36.8047C116.906 36.8047 116.988 36.8164 117.059 36.8398C117.152 36.8633 117.246 36.875 117.34 36.875C117.48 36.875 117.656 36.793 117.867 36.6289C118.102 36.4414 118.348 36.2305 118.605 35.9961C118.887 35.7617 119.168 35.5391 119.449 35.3281C119.73 35.0938 120 34.9297 120.258 34.8359C120.422 34.5078 120.574 34.1797 120.715 33.8516C120.879 33.5234 121.113 33.2656 121.418 33.0781V32.0586C121.652 31.8008 121.898 31.5664 122.156 31.3555C122.438 31.1445 122.648 30.875 122.789 30.5469C122.906 30.5938 123.012 30.6289 123.105 30.6523C123.223 30.6758 123.34 30.6875 123.457 30.6875C123.574 30.6875 123.691 30.6758 123.809 30.6523C123.949 30.6289 124.078 30.5938 124.195 30.5469C124.383 30.8047 124.523 31.0977 124.617 31.4258C124.734 31.7305 124.875 32.0234 125.039 32.3047C124.828 32.7266 124.582 33.2305 124.301 33.8164C124.02 34.4023 123.715 34.9883 123.387 35.5742C123.059 36.1602 122.707 36.7227 122.332 37.2617C121.98 37.7773 121.629 38.1758 121.277 38.457C121.207 38.5273 121.055 38.6094 120.82 38.7031C120.562 38.8906 120.328 39.0664 120.117 39.2305C119.906 39.418 119.707 39.6289 119.52 39.8633C118.84 40.0742 118.184 40.3555 117.551 40.707C116.941 41.0586 116.332 41.3984 115.723 41.7266C115.441 41.6562 115.137 41.6211 114.809 41.6211C114.527 41.6211 114.246 41.6328 113.965 41.6562C113.684 41.7031 113.379 41.7266 113.051 41.7266C112.957 41.6094 112.816 41.5273 112.629 41.4805C112.465 41.457 112.406 41.3398 112.453 41.1289C111.656 41.082 111.012 40.8594 110.52 40.4609C110.027 40.0859 109.605 39.6172 109.254 39.0547C108.926 38.4922 108.656 37.8828 108.445 37.2266C108.234 36.5703 108.012 35.9375 107.777 35.3281V35.2227C107.777 35.1055 107.824 35.0352 107.918 35.0117C108.012 34.9883 108.059 34.918 108.059 34.8008C108.059 34.7539 108.047 34.7188 108.023 34.6953C107.953 34.4375 107.895 34.2148 107.848 34.0273C107.801 33.8398 107.777 33.6172 107.777 33.3594C107.777 32.9844 107.801 32.6211 107.848 32.2695C107.895 31.8945 107.918 31.5195 107.918 31.1445C107.918 30.7695 107.871 30.4414 107.777 30.1602C107.871 30.043 107.953 29.8906 108.023 29.7031C108.07 29.4922 108.105 29.2812 108.129 29.0703C108.152 28.8594 108.164 28.6484 108.164 28.4375C108.188 28.2266 108.223 28.0391 108.27 27.875C108.176 27.6172 108.094 27.3945 108.023 27.207C107.953 26.9961 107.918 26.75 107.918 26.4688V26.2227C108.152 25.8242 108.352 25.4141 108.516 24.9922C108.68 24.5703 108.855 24.1367 109.043 23.6914V23.5859C109.043 22.9062 109.02 22.2266 108.973 21.5469C108.926 20.8672 108.902 20.1875 108.902 19.5078V18.8398C108.902 18.6055 108.914 18.3828 108.938 18.1719C109.125 18.0781 109.266 17.9492 109.359 17.7852C109.453 17.6211 109.594 17.4922 109.781 17.3984H110.941L111.152 17.0469C111.223 16.9297 111.27 16.8008 111.293 16.6602C111.551 16.5898 111.797 16.4961 112.031 16.3789C112.289 16.2383 112.523 16.0977 112.734 15.957C113.062 15.7695 113.355 15.6055 113.613 15.4648C113.895 15.3008 114.164 15.1719 114.422 15.0781C114.703 14.9609 114.996 14.8672 115.301 14.7969C115.605 14.7266 115.957 14.668 116.355 14.6211C116.543 14.6211 116.66 14.5859 116.707 14.5156C116.777 14.4453 116.871 14.3633 116.988 14.2695C117.27 14.3164 117.551 14.3633 117.832 14.4102C118.113 14.4336 118.395 14.4453 118.676 14.4453C119.238 14.4453 119.766 14.3398 120.258 14.1289C120.961 14.1289 121.652 14.1172 122.332 14.0938C123.035 14.0703 123.738 14.0586 124.441 14.0586C125.051 14.0586 125.66 14.082 126.27 14.1289C126.879 14.1758 127.477 14.2578 128.062 14.375C128.273 14.3047 128.508 14.2695 128.766 14.2695C129.047 14.2695 129.328 14.3047 129.609 14.375C129.914 14.4219 130.207 14.4219 130.488 14.375C130.512 14.6328 130.57 14.8555 130.664 15.043C130.781 15.207 130.84 15.4062 130.84 15.6406ZM148.312 28.9648C148.312 29.2227 148.219 29.4219 148.031 29.5625C147.844 29.6797 147.75 29.8438 147.75 30.0547C147.75 30.1484 147.797 30.2656 147.891 30.4062C147.562 30.4062 147.34 30.5117 147.223 30.7227C147.105 30.9336 146.988 31.168 146.871 31.4258H146.414C146.297 31.4258 146.203 31.4492 146.133 31.4961C146.062 31.543 145.992 31.6133 145.922 31.707C145.875 31.7773 145.805 31.8945 145.711 32.0586C145.266 32.1523 144.832 32.3047 144.41 32.5156C144.012 32.7031 143.613 32.9141 143.215 33.1484C142.84 33.3594 142.453 33.582 142.055 33.8164C141.656 34.0273 141.246 34.2031 140.824 34.3438C140.613 34.6953 140.309 34.9766 139.91 35.1875H139.805C139.688 35.2109 139.582 35.1992 139.488 35.1523C139.418 35.082 139.324 35.0469 139.207 35.0469C139.137 35.0469 139.09 35.0586 139.066 35.082C138.363 35.5508 137.578 35.7852 136.711 35.7852C136.477 35.7852 136.254 35.7734 136.043 35.75C135.832 35.7031 135.609 35.6797 135.375 35.6797C135.305 35.6797 135.258 35.7031 135.234 35.75L135.164 35.8906C135.141 35.9375 135.105 35.9844 135.059 36.0312C135.035 36.0781 134.953 36.1016 134.812 36.1016C134.555 36.1016 134.297 36.0664 134.039 35.9961C133.781 35.9258 133.512 35.9141 133.23 35.9609C132.691 35.6562 132.27 35.3633 131.965 35.082C131.66 34.8008 131.379 34.3789 131.121 33.8164C131.004 33.5586 130.84 33.3125 130.629 33.0781C130.441 32.8438 130.301 32.5859 130.207 32.3047C130.184 32.2109 130.148 32.0469 130.102 31.8125C130.055 31.5547 130.008 31.2852 129.961 31.0039C129.914 30.7227 129.867 30.4531 129.82 30.1953C129.797 29.9375 129.785 29.7617 129.785 29.668C129.785 29.3867 129.797 29.1172 129.82 28.8594C129.867 28.5781 129.914 28.2969 129.961 28.0156C130.102 27.125 130.195 26.2344 130.242 25.3438C130.312 24.4297 130.512 23.5508 130.84 22.707C130.793 22.4492 130.77 22.2031 130.77 21.9688V21.1953C130.77 20.75 130.711 20.375 130.594 20.0703C130.781 19.7656 130.875 19.4258 130.875 19.0508C130.875 18.6289 130.699 18.3828 130.348 18.3125V18.207C130.348 17.7148 130.184 17.3281 129.855 17.0469C129.855 16.2266 130.055 15.6172 130.453 15.2188C130.875 14.7969 131.426 14.4336 132.105 14.1289C132.199 13.9883 132.234 13.8711 132.211 13.7773C132.375 13.8242 132.527 13.8711 132.668 13.918C132.809 13.9648 132.949 13.9883 133.09 13.9883C133.324 13.9883 133.535 13.9531 133.723 13.8828C133.793 14.1641 133.969 14.3398 134.25 14.4102C134.555 14.457 134.801 14.5273 134.988 14.6211V15.0781C134.988 15.8047 135.164 16.4961 135.516 17.1523C135.422 17.3398 135.363 17.5391 135.34 17.75C135.316 17.9609 135.305 18.1602 135.305 18.3477C135.305 18.6289 135.316 18.9102 135.34 19.1914C135.363 19.4727 135.375 19.7422 135.375 20C135.375 20.2812 135.34 20.5625 135.27 20.8438C135.223 21.125 135.094 21.3711 134.883 21.582C134.859 21.8867 134.836 22.2383 134.812 22.6367C134.812 23.0117 134.789 23.3984 134.742 23.7969C134.719 24.1953 134.66 24.582 134.566 24.957C134.473 25.332 134.332 25.6367 134.145 25.8711C134.121 26.2227 134.098 26.5859 134.074 26.9609C134.074 27.3125 134.074 27.6523 134.074 27.9805C134.074 28.4961 134.098 29.1055 134.145 29.8086C134.215 30.5117 134.379 31.0977 134.637 31.5664C134.754 31.7539 134.977 31.8945 135.305 31.9883C135.656 32.082 135.938 32.1289 136.148 32.1289C136.406 32.1289 136.664 32.0938 136.922 32.0234C137.203 31.9297 137.402 31.7773 137.52 31.5664C137.66 31.5898 137.754 31.6602 137.801 31.7773C137.848 31.8945 137.93 31.9883 138.047 32.0586C139.383 31.4961 140.719 30.957 142.055 30.4414C143.391 29.9258 144.703 29.3281 145.992 28.6484C146.18 28.7422 146.379 28.7891 146.59 28.7891C146.824 28.7891 147.059 28.7656 147.293 28.7188C147.527 28.6719 147.762 28.6484 147.996 28.6484H148.242C148.289 28.7891 148.312 28.8945 148.312 28.9648ZM196.898 45.875C196.898 46.1328 196.84 46.3789 196.723 46.6133C196.254 46.8711 195.762 47.0469 195.246 47.1406C194.754 47.2578 194.262 47.3164 193.77 47.3164C193.535 47.3164 193.277 47.3047 192.996 47.2812C192.738 47.2812 192.504 47.2578 192.293 47.2109C192.223 47.1875 192.141 47.1406 192.047 47.0703C191.953 47 191.859 46.9648 191.766 46.9648C191.531 46.9648 191.309 47 191.098 47.0703C190.887 47.1641 190.664 47.2109 190.43 47.2109C190.312 47.2109 190.195 47.1758 190.078 47.1055C189.984 47.0352 189.879 46.9883 189.762 46.9648C189.598 46.918 189.434 46.9062 189.27 46.9297C189.105 46.9531 188.93 46.9648 188.742 46.9648C188.484 46.9648 188.25 46.9297 188.039 46.8594C187.852 46.7891 187.676 46.6602 187.512 46.4727C186.926 46.4023 186.352 46.2852 185.789 46.1211C185.227 45.9805 184.664 45.8164 184.102 45.6289C183.539 45.4648 182.977 45.3008 182.414 45.1367C181.852 44.9961 181.277 44.9023 180.691 44.8555C180.551 44.6914 180.387 44.5625 180.199 44.4688C180.012 44.3984 179.871 44.2695 179.777 44.082C179.66 44.082 179.578 44.0938 179.531 44.1172C179.484 44.1641 179.402 44.1875 179.285 44.1875C178.887 43.8594 178.453 43.5781 177.984 43.3438C177.539 43.1094 177.07 42.8867 176.578 42.6758C176.109 42.4648 175.641 42.2422 175.172 42.0078C174.727 41.7969 174.305 41.5156 173.906 41.1641H173.73C173.543 41.1875 173.379 41.1406 173.238 41.0234C173.121 40.9297 172.969 40.8828 172.781 40.8828C172.664 40.8828 172.57 40.8945 172.5 40.918C172.43 40.7305 172.324 40.5781 172.184 40.4609C172.043 40.3438 171.891 40.2266 171.727 40.1094C171.586 40.0156 171.445 39.9102 171.305 39.793C171.164 39.6992 171.059 39.5703 170.988 39.4062C170.402 39.1953 169.828 38.9375 169.266 38.6328C168.727 38.3516 168.246 37.9766 167.824 37.5078C167.355 37.4609 166.969 37.3203 166.664 37.0859C166.359 36.8281 166.078 36.5117 165.82 36.1367C165.258 35.9492 164.742 35.7031 164.273 35.3984C163.805 35.0938 163.336 34.7773 162.867 34.4492C162.422 34.1211 161.941 33.8281 161.426 33.5703C160.934 33.2891 160.371 33.0898 159.738 32.9727C159.715 32.8086 159.645 32.6914 159.527 32.6211C159.41 32.5273 159.27 32.457 159.105 32.4102C158.965 32.3398 158.824 32.2812 158.684 32.2344C158.543 32.1875 158.438 32.0938 158.367 31.9531C158.297 31.9531 158.227 31.9531 158.156 31.9531C158.086 31.9297 158.016 31.918 157.945 31.918C157.875 31.918 157.793 31.9297 157.699 31.9531C157.629 31.9531 157.559 31.9531 157.488 31.9531L157.523 31.8477C157.523 31.7539 157.488 31.6953 157.418 31.6719C157.371 31.6484 157.301 31.625 157.207 31.6016C157.113 31.5781 157.031 31.543 156.961 31.4961C156.891 31.4492 156.855 31.3438 156.855 31.1797H156.75C156.492 31.1797 156.258 31.1328 156.047 31.0391C155.836 30.9453 155.602 30.875 155.344 30.8281C155.297 31.0859 155.273 31.332 155.273 31.5664V32.1992C155.273 33.2539 155.391 34.3672 155.625 35.5391C155.859 36.6875 156.223 37.7188 156.715 38.6328C157.207 38.8203 157.629 39.0664 157.98 39.3711C158.332 39.6758 158.672 40.0273 159 40.4258C159.023 41.0586 158.789 41.5859 158.297 42.0078C157.828 42.4531 157.277 42.6758 156.645 42.6758C156.293 42.6758 155.965 42.582 155.66 42.3945C155.379 42.2305 155.145 41.9844 154.957 41.6562C154.816 41.6562 154.688 41.6797 154.57 41.7266C154.453 41.7969 154.312 41.832 154.148 41.832C154.078 41.832 154.008 41.8203 153.938 41.7969C153.703 41.3984 153.469 41.0469 153.234 40.7422C153.023 40.4375 152.883 40.0273 152.812 39.5117C152.555 39.3945 152.391 39.1836 152.32 38.8789C152.273 38.5742 152.145 38.3281 151.934 38.1406C151.84 37.0859 151.711 36.0312 151.547 34.9766C151.406 33.9219 151.336 32.8672 151.336 31.8125C151.336 31.5781 151.348 31.3438 151.371 31.1094C151.395 30.8516 151.418 30.5938 151.441 30.3359C151.395 30.2188 151.324 30.1133 151.23 30.0195C151.16 29.9023 151.102 29.7852 151.055 29.668C150.586 29.7852 150.094 29.9023 149.578 30.0195C149.086 30.1133 148.582 30.1602 148.066 30.1602C147.738 30.1602 147.34 30.1133 146.871 30.0195C146.402 29.9023 146.039 29.75 145.781 29.5625C145.594 29.4453 145.465 29.2344 145.395 28.9297C145.301 28.6016 145.254 28.3203 145.254 28.0859C145.254 27.6875 145.324 27.2891 145.465 26.8906C145.605 26.4688 145.793 26.1055 146.027 25.8008C147.176 25.332 148.242 24.7578 149.227 24.0781C150.234 23.3984 151.219 22.6602 152.18 21.8633C152.203 21.6289 152.238 21.3945 152.285 21.1602C152.355 20.9258 152.391 20.6797 152.391 20.4219C152.391 20.1406 152.32 19.8711 152.18 19.6133C152.32 19.4727 152.391 19.2969 152.391 19.0859C152.391 18.8516 152.449 18.6406 152.566 18.4531V18.2422C152.566 18.1484 152.555 18.0547 152.531 17.9609C152.531 17.8672 152.496 17.7734 152.426 17.6797C152.59 16.7656 152.719 15.8633 152.812 14.9727C152.906 14.0586 152.953 13.1211 152.953 12.1602C152.953 12.0898 152.988 11.9023 153.059 11.5977C153.152 11.2695 153.211 11.0469 153.234 10.9297C153.328 10.3906 153.387 9.86328 153.41 9.34766C153.457 8.80859 153.516 8.26953 153.586 7.73047C153.609 7.54297 153.656 7.29687 153.727 6.99219C153.797 6.6875 153.832 6.47656 153.832 6.35938C153.832 6.19531 153.797 6.08984 153.727 6.04297C153.68 5.97266 153.633 5.86719 153.586 5.72656C153.727 5.1875 153.797 4.64844 153.797 4.10938C153.82 3.54688 153.867 2.99609 153.938 2.45703C154.336 2.29297 154.652 2.12891 154.887 1.96484C155.121 1.80078 155.461 1.71875 155.906 1.71875H155.977C156.023 2 156.129 2.26953 156.293 2.52734C156.457 2.76172 156.621 3.00781 156.785 3.26562C156.973 3.5 157.137 3.73438 157.277 3.96875C157.418 4.17969 157.488 4.39062 157.488 4.60156C157.488 5 157.453 5.43359 157.383 5.90234C157.312 6.37109 157.254 6.80469 157.207 7.20312C157.09 8.25781 156.984 9.30078 156.891 10.332C156.797 11.3398 156.656 12.3711 156.469 13.4258C156.539 13.7539 156.574 14.0586 156.574 14.3398C156.574 14.7617 156.539 15.1836 156.469 15.6055C156.398 16.0273 156.363 16.4609 156.363 16.9062C156.363 17.1172 156.375 17.3398 156.398 17.5742C156.445 17.8086 156.516 18.0195 156.609 18.207C157.406 17.9961 158.121 17.5625 158.754 16.9062C158.848 16.8125 158.941 16.6953 159.035 16.5547C159.152 16.3906 159.27 16.2617 159.387 16.168C159.621 15.9805 159.867 15.8164 160.125 15.6758C160.406 15.5117 160.676 15.3477 160.934 15.1836C161.543 14.7852 162.129 14.375 162.691 13.9531C163.277 13.5078 163.863 13.0742 164.449 12.6523C166.184 11.3867 167.859 10.0742 169.477 8.71484C171.117 7.33203 172.711 5.87891 174.258 4.35547C174.328 3.95703 174.469 3.64062 174.68 3.40625C174.891 3.17188 175.078 2.89063 175.242 2.5625C175.688 2.39844 176.074 2.15234 176.402 1.82422C176.543 1.87109 176.684 1.90625 176.824 1.92969C176.988 1.92969 177.141 1.92969 177.281 1.92969C177.445 1.92969 177.598 1.94141 177.738 1.96484C177.902 1.96484 178.043 2 178.16 2.07031C178.184 2.42188 178.219 2.73828 178.266 3.01953C178.312 3.30078 178.453 3.57031 178.688 3.82812C178.688 3.875 178.688 3.92187 178.688 3.96875C178.711 4.01563 178.723 4.0625 178.723 4.10938C178.723 4.36719 178.652 4.57813 178.512 4.74219C178.371 4.90625 178.289 5.10547 178.266 5.33984L176.438 7.16797C175.828 7.77734 175.266 8.43359 174.75 9.13672C174.562 9.16016 174.398 9.21875 174.258 9.3125C174.117 9.40625 173.977 9.51172 173.836 9.62891C173.719 9.72266 173.59 9.81641 173.449 9.91016C173.309 10.0039 173.156 10.0742 172.992 10.1211C172.57 10.6836 172.09 11.1992 171.551 11.668C171.012 12.1133 170.461 12.5469 169.898 12.9688C169.336 13.3906 168.773 13.8242 168.211 14.2695C167.672 14.6914 167.168 15.1602 166.699 15.6758C166.207 15.9102 165.727 16.1914 165.258 16.5195C164.812 16.8242 164.449 17.2109 164.168 17.6797H163.992C163.875 17.6797 163.781 17.7148 163.711 17.7852C163.641 17.832 163.547 17.8555 163.43 17.8555C162.164 18.957 160.852 20 159.492 20.9844C158.133 21.9453 156.832 23 155.59 24.1484V25.0273C155.988 25.2617 156.422 25.4844 156.891 25.6953C157.359 25.8828 157.816 26.0938 158.262 26.3281C158.73 26.5625 159.164 26.8203 159.562 27.1016C159.984 27.3594 160.348 27.6758 160.652 28.0508C160.699 28.0273 160.758 28.0156 160.828 28.0156C161.039 28.0156 161.203 28.0859 161.32 28.2266C161.438 28.3438 161.637 28.3789 161.918 28.332C162.012 28.707 162.223 28.9766 162.551 29.1406C162.879 29.3047 163.207 29.4453 163.535 29.5625C163.816 29.8438 164.074 30.1133 164.309 30.3711C164.543 30.6055 164.883 30.7578 165.328 30.8281C165.375 30.9219 165.41 31.0273 165.434 31.1445C165.457 31.2617 165.504 31.3672 165.574 31.4609C166.02 31.6016 166.441 31.8008 166.84 32.0586C167.262 32.3164 167.672 32.5859 168.07 32.8672C168.469 33.125 168.867 33.3828 169.266 33.6406C169.688 33.875 170.133 34.0625 170.602 34.2031C170.672 34.4375 170.801 34.6016 170.988 34.6953C171.199 34.7891 171.363 34.9297 171.48 35.1172H172.113C172.184 35.2344 172.277 35.3516 172.395 35.4688C172.512 35.5625 172.594 35.7031 172.641 35.8906C172.828 35.9375 173.039 36.0078 173.273 36.1016C173.508 36.1719 173.719 36.2656 173.906 36.3828C173.977 36.4531 174.023 36.5352 174.047 36.6289C174.094 36.7227 174.164 36.8047 174.258 36.875C174.398 36.9922 174.609 37.0859 174.891 37.1562C175.195 37.2031 175.453 37.2852 175.664 37.4023C176.086 37.6367 176.496 37.8945 176.895 38.1758C177.293 38.4805 177.715 38.7617 178.16 39.0195L179.531 39.7578C179.766 39.875 179.977 40.0039 180.164 40.1445C180.375 40.2852 180.586 40.4141 180.797 40.5312C181.219 40.7188 181.664 40.8359 182.133 40.8828C182.625 40.9531 183.07 41.082 183.469 41.2695C183.586 41.3398 183.668 41.4219 183.715 41.5156C183.762 41.6328 183.844 41.7266 183.961 41.7969C184.148 41.9141 184.441 41.9961 184.84 42.043C185.238 42.0898 185.566 42.1719 185.824 42.2891C186.152 42.4297 186.469 42.5586 186.773 42.6758C187.102 42.8164 187.43 42.9805 187.758 43.168C188.461 43.2148 189.152 43.2969 189.832 43.4141C190.535 43.5312 191.227 43.6484 191.906 43.7656C192.586 43.8828 193.266 43.9883 193.945 44.082C194.648 44.1758 195.352 44.2109 196.055 44.1875C196.055 44.2344 196.078 44.2578 196.125 44.2578C196.195 44.2812 196.254 44.293 196.301 44.293C196.465 44.5508 196.605 44.8086 196.723 45.0664C196.84 45.3242 196.898 45.5938 196.898 45.875ZM183.152 33.1836C183.035 33.3711 182.895 33.5469 182.73 33.7109C182.566 33.8516 182.414 34.0039 182.273 34.168C182.109 34.2383 181.922 34.2734 181.711 34.2734C181.523 34.2734 181.336 34.2734 181.148 34.2734C180.984 34.25 180.82 34.25 180.656 34.2734C180.516 34.2734 180.398 34.3203 180.305 34.4141C180.117 34.3672 179.977 34.2852 179.883 34.168C179.789 34.0273 179.625 33.9453 179.391 33.9219C179.297 33.8984 179.203 33.8984 179.109 33.9219C178.758 33.5234 178.43 33.1016 178.125 32.6562C177.844 32.2109 177.574 31.7891 177.316 31.3906C177.293 30.5234 177.223 29.6445 177.105 28.7539C177.082 28.543 177.047 28.332 177 28.1211C176.953 27.9102 176.918 27.7109 176.895 27.5234C176.895 27.2891 176.906 27.0664 176.93 26.8555C176.977 26.6211 177.012 26.4102 177.035 26.2227C177.129 25.543 177.234 24.875 177.352 24.2188C177.469 23.5625 177.574 22.8945 177.668 22.2148C177.762 21.6055 177.809 20.9727 177.809 20.3164C177.809 19.6367 177.703 19.0039 177.492 18.418L177.457 18.2422C177.504 18.0547 177.551 17.9023 177.598 17.7852C177.668 17.6445 177.715 17.4922 177.738 17.3281C177.785 17.0703 177.727 16.8828 177.562 16.7656C177.633 16.5781 177.75 16.4609 177.914 16.4141C178.078 16.3438 178.172 16.2031 178.195 15.9922C178.219 15.8984 178.219 15.8047 178.195 15.7109C178.383 15.6406 178.57 15.582 178.758 15.5352C178.969 15.4648 179.168 15.4531 179.355 15.5C179.66 15.5469 179.93 15.6523 180.164 15.8164C180.398 15.957 180.621 16.1211 180.832 16.3086C181.207 17.4336 181.359 18.6289 181.289 19.8945C181.219 21.1367 181.102 22.3906 180.938 23.6562C180.773 24.9219 180.668 26.1641 180.621 27.3828C180.574 28.5781 180.762 29.6914 181.184 30.7227L181.254 30.7578C181.371 30.7812 181.465 30.7461 181.535 30.6523C181.605 30.5352 181.699 30.4883 181.816 30.5117C181.91 30.5586 181.969 30.582 181.992 30.582C182.086 31.0508 182.238 31.4961 182.449 31.918C182.66 32.3398 182.895 32.7617 183.152 33.1836ZM212.859 31.6719C212.859 31.9062 212.789 32.1055 212.648 32.2695C212.531 32.4102 212.379 32.5391 212.191 32.6562C212.027 32.7734 211.852 32.8789 211.664 32.9727C211.5 33.0664 211.348 33.1836 211.207 33.3242C211.113 33.418 211.043 33.5352 210.996 33.6758C210.973 33.793 210.914 33.875 210.82 33.9219C210.68 34.0391 210.527 34.1094 210.363 34.1328C210.199 34.1562 210.023 34.1914 209.836 34.2383C209.672 34.2617 209.508 34.3086 209.344 34.3789C209.18 34.4258 209.039 34.5312 208.922 34.6953C207.82 34.8125 206.73 34.9648 205.652 35.1523C204.598 35.3398 203.508 35.4336 202.383 35.4336C202.172 35.4336 201.938 35.457 201.68 35.5039C201.445 35.5273 201.223 35.5508 201.012 35.5742C200.52 35.6211 200.027 35.6562 199.535 35.6797C199.066 35.7031 198.586 35.7148 198.094 35.7148C197.414 35.7148 196.734 35.6914 196.055 35.6445C195.375 35.5742 194.707 35.4688 194.051 35.3281C193.887 35.2109 193.699 35.1172 193.488 35.0469C193.277 34.9766 193.055 34.9062 192.82 34.8359C192.609 34.7656 192.41 34.6836 192.223 34.5898C192.035 34.4961 191.895 34.3555 191.801 34.168C191.449 34.1445 191.133 34.0742 190.852 33.957C190.594 33.8398 190.348 33.7109 190.113 33.5703C189.902 33.4062 189.68 33.2422 189.445 33.0781C189.211 32.9141 188.941 32.7734 188.637 32.6562C188.402 32.3281 188.156 32.0117 187.898 31.707C187.664 31.3789 187.371 31.1094 187.02 30.8984C186.949 30.4531 186.832 30.0078 186.668 29.5625C186.527 29.1172 186.375 28.6836 186.211 28.2617C186.07 27.8164 185.953 27.3711 185.859 26.9258C185.742 26.4805 185.684 26.0234 185.684 25.5547C185.684 25.2266 185.73 24.8281 185.824 24.3594C185.918 23.8906 186.035 23.4219 186.176 22.9531C186.34 22.4609 186.527 22.0039 186.738 21.582C186.949 21.1602 187.16 20.8203 187.371 20.5625C187.441 20.4922 187.523 20.4336 187.617 20.3867C187.711 20.3398 187.793 20.2695 187.863 20.1758C188.074 19.9414 188.297 19.7539 188.531 19.6133C188.766 19.4492 189.012 19.2617 189.27 19.0508C189.363 18.957 189.434 18.8516 189.48 18.7344C189.551 18.6172 189.645 18.5117 189.762 18.418C189.832 18.3711 189.926 18.3594 190.043 18.3828C190.184 18.4062 190.301 18.3828 190.395 18.3125C190.488 18.2422 190.535 18.1602 190.535 18.0664C190.535 17.9727 190.57 17.8906 190.641 17.8203C190.664 17.7969 190.734 17.7969 190.852 17.8203C190.969 17.8203 191.039 17.8203 191.062 17.8203C191.227 17.8203 191.414 17.7148 191.625 17.5039C191.836 17.2695 192.012 17.1172 192.152 17.0469C192.316 16.9531 192.48 16.8945 192.645 16.8711C192.809 16.8242 192.984 16.7539 193.172 16.6602C193.43 16.5195 193.676 16.4141 193.91 16.3438C194.168 16.25 194.426 16.1445 194.684 16.0273C194.824 15.9805 194.953 15.8984 195.07 15.7812C195.188 15.6641 195.305 15.582 195.422 15.5352C195.633 15.4648 195.855 15.418 196.09 15.3945C196.348 15.3477 196.582 15.3125 196.793 15.2891C197.027 15.2422 197.25 15.1953 197.461 15.1484C197.695 15.0781 197.906 14.9609 198.094 14.7969H198.375C198.797 14.7969 199.207 14.7383 199.605 14.6211C200.004 14.5039 200.414 14.4453 200.836 14.4453C200.953 14.4453 201.129 14.4688 201.363 14.5156C201.551 14.3984 201.762 14.3398 201.996 14.3398C202.395 14.3398 202.793 14.4453 203.191 14.6562C203.59 14.8438 204 14.9375 204.422 14.9375H204.633C204.727 14.9375 204.82 14.9258 204.914 14.9023C205.172 15.1602 205.477 15.3008 205.828 15.3242C206.203 15.3477 206.52 15.4531 206.777 15.6406C206.941 15.7812 207.07 15.9453 207.164 16.1328C207.281 16.3203 207.375 16.5195 207.445 16.7305L207.656 17.3633C207.727 17.5742 207.82 17.7617 207.938 17.9258C207.82 18.7695 207.469 19.4492 206.883 19.9648C206.32 20.457 205.605 20.7031 204.738 20.7031C204.41 20.7031 204.129 20.668 203.895 20.5977C203.684 20.5039 203.484 20.4102 203.297 20.3164C203.133 20.2227 202.957 20.1289 202.77 20.0352C202.582 19.9414 202.371 19.8711 202.137 19.8242C202.395 19.3555 202.559 18.8516 202.629 18.3125C202.371 18.1953 202.113 18.1133 201.855 18.0664C201.598 18.0195 201.352 17.9375 201.117 17.8203C200.484 17.9844 199.863 18.1016 199.254 18.1719C198.668 18.2188 198.117 18.4648 197.602 18.9102C197.484 18.8867 197.355 18.8633 197.215 18.8398C197.098 18.8164 196.98 18.8047 196.863 18.8047C196.723 18.8047 196.441 18.9102 196.02 19.1211C195.598 19.3086 195.141 19.5312 194.648 19.7891C194.18 20.0469 193.723 20.3047 193.277 20.5625C192.855 20.8203 192.562 20.9961 192.398 21.0898C192.211 21.207 192.047 21.3477 191.906 21.5117C191.766 21.6758 191.625 21.8516 191.484 22.0391C191.344 22.2031 191.203 22.3672 191.062 22.5312C190.922 22.6719 190.746 22.7773 190.535 22.8477C190.488 23.1055 190.406 23.3281 190.289 23.5156C190.172 23.7031 190.043 23.9023 189.902 24.1133C189.879 24.5352 189.832 24.957 189.762 25.3789C189.715 25.8008 189.691 26.2227 189.691 26.6445V27.1016C189.691 27.2422 189.715 27.3711 189.762 27.4883C189.996 27.793 190.184 28.1328 190.324 28.5078C190.488 28.8828 190.758 29.1406 191.133 29.2812C191.156 29.375 191.145 29.4336 191.098 29.457C191.074 29.4805 191.051 29.5391 191.027 29.6328C191.168 29.8906 191.344 30.1016 191.555 30.2656C191.789 30.4062 192.023 30.5586 192.258 30.7227C192.492 30.8633 192.715 31.0156 192.926 31.1797C193.137 31.3438 193.301 31.5547 193.418 31.8125C193.77 31.8125 194.098 31.8711 194.402 31.9883C194.73 32.1055 195.035 32.2344 195.316 32.375C195.621 32.5156 195.902 32.6445 196.16 32.7617C196.441 32.8789 196.723 32.9375 197.004 32.9375C197.262 32.9375 197.496 32.9023 197.707 32.832C198.316 33.0195 198.926 33.1602 199.535 33.2539C200.168 33.3242 200.801 33.3594 201.434 33.3594C202.207 33.3594 202.98 33.3125 203.754 33.2188C204.527 33.125 205.301 33.043 206.074 32.9727C206.355 32.9258 206.625 32.9023 206.883 32.9023C207.141 32.9023 207.398 32.8789 207.656 32.832C207.984 32.7852 208.289 32.6328 208.57 32.375C208.875 32.1172 209.168 31.9297 209.449 31.8125C209.707 31.9766 210.012 32.0586 210.363 32.0586C210.762 32.0586 211.148 32 211.523 31.8828C211.898 31.7422 212.285 31.6719 212.684 31.6719H212.859ZM240.387 36.207C240.387 36.3945 240.305 36.5469 240.141 36.6641C239.977 36.7812 239.789 36.8984 239.578 37.0156L238.945 37.332C238.734 37.4258 238.594 37.5547 238.523 37.7188C238.266 37.6484 238.008 37.6016 237.75 37.5781C237.516 37.5547 237.281 37.543 237.047 37.543C236.742 37.543 236.426 37.5781 236.098 37.6484C235.77 37.6953 235.512 37.8477 235.324 38.1055C235.207 38.0586 235.102 38.0352 235.008 38.0352H234.727C234.375 38.0352 234.012 38.0586 233.637 38.1055C233.285 38.1758 232.934 38.2109 232.582 38.2109C232.395 38.2109 232.207 38.1992 232.02 38.1758C231.855 38.1523 231.703 38.082 231.562 37.9648C231.352 38.0352 231.129 38.0703 230.895 38.0703C230.59 38.0703 230.297 38.0234 230.016 37.9297C229.734 37.8359 229.453 37.7305 229.172 37.6133C228.914 37.4727 228.645 37.3438 228.363 37.2266C228.082 37.1094 227.801 37.0156 227.52 36.9453L227.273 36.4531C226.898 36.3828 226.547 36.2773 226.219 36.1367C225.914 35.9727 225.609 35.7969 225.305 35.6094C225 35.4219 224.695 35.2461 224.391 35.082C224.109 34.8945 223.816 34.7656 223.512 34.6953C223.395 34.6016 223.289 34.5195 223.195 34.4492C223.102 34.3555 223.031 34.2266 222.984 34.0625C222.68 33.9922 222.398 33.8984 222.141 33.7812L221.402 33.3945C221.168 33.2539 220.898 33.1367 220.594 33.043C220.312 32.9258 219.973 32.8555 219.574 32.832C219.434 32.6211 219.234 32.4219 218.977 32.2344C218.719 32.0469 218.461 31.9531 218.203 31.9531C218.039 31.9531 217.91 31.9883 217.816 32.0586V32.2344C217.816 32.5156 217.898 32.7969 218.062 33.0781C218.227 33.3594 218.438 33.5586 218.695 33.6758C218.672 33.7227 218.66 33.793 218.66 33.8867C218.66 34.0273 218.684 34.168 218.73 34.3086C218.801 34.4492 218.918 34.543 219.082 34.5898C218.988 34.8477 218.871 35.1172 218.73 35.3984C218.59 35.6562 218.414 35.9023 218.203 36.1367C217.992 36.3711 217.758 36.5703 217.5 36.7344C217.266 36.875 216.996 36.9453 216.691 36.9453C216.598 36.9922 216.527 37.0625 216.48 37.1562C216.457 37.25 216.434 37.3555 216.41 37.4727C216.41 37.5664 216.387 37.6602 216.34 37.7539C216.316 37.8477 216.27 37.918 216.199 37.9648C216.105 37.9883 215.977 38 215.812 38C215.578 38 215.379 37.9648 215.215 37.8945C215.051 37.8242 214.875 37.7305 214.688 37.6133V37.4727C214.688 37.1914 214.629 36.9688 214.512 36.8047C214.418 36.6406 214.301 36.4883 214.16 36.3477C214.043 36.1836 213.926 36.0195 213.809 35.8555C213.715 35.6914 213.668 35.4688 213.668 35.1875C213.598 35.2344 213.516 35.2695 213.422 35.293C213.352 35.3164 213.305 35.3633 213.281 35.4336C213.234 35.1992 213.211 35 213.211 34.8359C213.211 34.3672 213.281 33.9219 213.422 33.5C213.586 33.0781 213.668 32.6328 213.668 32.1641V31.6367C213.668 31.0977 213.656 30.5703 213.633 30.0547C213.609 29.5391 213.598 29.0234 213.598 28.5078C213.598 28.0625 213.609 27.6289 213.633 27.207C213.656 26.7617 213.703 26.3164 213.773 25.8711C214.031 24.3242 214.242 22.7891 214.406 21.2656C214.594 19.7188 214.887 18.1836 215.285 16.6602C215.262 16.543 215.227 16.4258 215.18 16.3086C215.156 16.1914 215.145 16.0742 215.145 15.957C215.145 15.8633 215.156 15.8047 215.18 15.7812C215.273 15.3125 215.484 14.9258 215.812 14.6211C216.141 14.293 216.562 14.1289 217.078 14.1289H217.184C217.465 14.2461 217.676 14.4219 217.816 14.6562C217.98 14.8672 218.227 14.9492 218.555 14.9023C218.555 14.9492 218.543 14.9961 218.52 15.043C218.52 15.0898 218.52 15.1367 218.52 15.1836C218.52 15.4414 218.59 15.6289 218.73 15.7461C218.871 15.8633 219.035 15.9922 219.223 16.1328C219.105 16.3672 219.023 16.6367 218.977 16.9414C218.953 17.2461 218.93 17.5508 218.906 17.8555C218.883 18.1602 218.836 18.4531 218.766 18.7344C218.719 19.0156 218.613 19.25 218.449 19.4375C218.543 19.6719 218.602 19.9062 218.625 20.1406C218.648 20.375 218.66 20.6211 218.66 20.8789C218.66 21.1367 218.648 21.4062 218.625 21.6875C218.602 21.9453 218.59 22.2148 218.59 22.4961C218.59 22.7539 218.625 22.9883 218.695 23.1992C219.211 23.1992 219.504 22.9531 219.574 22.4609C220.184 22.2969 220.723 22.0742 221.191 21.793C221.684 21.4883 222.152 21.1719 222.598 20.8438C223.043 20.5156 223.477 20.1758 223.898 19.8242C224.344 19.4727 224.836 19.168 225.375 18.9102V18.8398C225.375 18.7227 225.41 18.6523 225.48 18.6289C225.551 18.582 225.562 18.4766 225.516 18.3125C225.867 18.1953 226.16 18.043 226.395 17.8555C226.652 17.6445 226.887 17.4219 227.098 17.1875L227.766 16.4492C228 16.1914 228.258 15.9688 228.539 15.7812C228.727 15.3828 228.891 14.9609 229.031 14.5156C229.195 14.0703 229.406 13.6602 229.664 13.2852C230.109 13.2852 230.59 13.3203 231.105 13.3906C231.645 13.4609 232.102 13.625 232.477 13.8828C232.43 14.0703 232.512 14.1992 232.723 14.2695C232.465 15.2539 232.078 16.1445 231.562 16.9414C231.047 17.7148 230.379 18.3711 229.559 18.9102C229.441 19.168 229.289 19.3906 229.102 19.5781C228.914 19.7656 228.727 19.9531 228.539 20.1406C228.352 20.3047 228.164 20.4805 227.977 20.668C227.789 20.8555 227.637 21.0781 227.52 21.3359C227.238 21.3828 226.992 21.4648 226.781 21.582C226.594 21.6992 226.406 21.8398 226.219 22.0039C226.055 22.1445 225.867 22.2852 225.656 22.4258C225.469 22.543 225.258 22.6367 225.023 22.707C224.836 22.9414 224.613 23.1406 224.355 23.3047C224.121 23.4688 223.875 23.6328 223.617 23.7969C223.383 23.9375 223.16 24.1016 222.949 24.2891C222.738 24.4531 222.586 24.6758 222.492 24.957H221.578C221.32 25.4023 220.98 25.7773 220.559 26.082C220.16 26.3633 219.75 26.6328 219.328 26.8906C219.398 27.1719 219.527 27.4062 219.715 27.5938C219.902 27.7578 220.102 27.9102 220.312 28.0508C220.547 28.1914 220.77 28.3438 220.98 28.5078C221.215 28.6484 221.414 28.8242 221.578 29.0352C222.562 29.4102 223.512 29.8438 224.426 30.3359C225.34 30.8047 226.207 31.3789 227.027 32.0586C227.074 32.0352 227.133 32.0234 227.203 32.0234C227.391 32.0234 227.543 32.082 227.66 32.1992C227.777 32.293 227.941 32.3281 228.152 32.3047C228.246 32.5391 228.375 32.7031 228.539 32.7969C228.703 32.8672 228.867 32.9258 229.031 32.9727C229.219 33.0195 229.395 33.0898 229.559 33.1836C229.723 33.2773 229.84 33.4414 229.91 33.6758C230.262 33.6992 230.578 33.7695 230.859 33.8867C231.164 34.0039 231.434 34.1914 231.668 34.4492H232.09C232.84 34.4492 233.566 34.5195 234.27 34.6602C234.973 34.8008 235.688 34.8711 236.414 34.8711C236.789 34.8711 237.152 34.8477 237.504 34.8008C237.855 34.7305 238.195 34.6133 238.523 34.4492C238.641 34.5195 238.77 34.5898 238.91 34.6602C239.051 34.7305 239.203 34.7656 239.367 34.7656C239.484 34.7656 239.66 34.7422 239.895 34.6953C239.918 34.9531 240 35.1992 240.141 35.4336C240.305 35.668 240.387 35.9258 240.387 36.207Z" fill="white"/>
</svg>
